<svg width="24" height="25" viewBox="0 0 24 25" fill="none" xmlns="http://www.w3.org/2000/svg">
<g id="figma-logo" clip-path="url(#clip0_1_2235)">
<path id="Vector" d="M15.9529 8.07787C16.982 8.04699 17.9586 7.61647 18.6756 6.8776C19.3927 6.13873 19.7937 5.14964 19.7937 4.12005C19.7937 3.09047 19.3927 2.10137 18.6756 1.3625C17.9586 0.623641 16.982 0.193118 15.9529 0.162231H8.03604C7.00692 0.193118 6.0303 0.623641 5.31327 1.3625C4.59625 2.10137 4.19521 3.09047 4.19521 4.12005C4.19521 5.14964 4.59625 6.13873 5.31327 6.8776C6.0303 7.61647 7.00692 8.04699 8.03604 8.07787C6.99792 8.09586 6.0084 8.52088 5.28061 9.26142C4.55283 10.0019 4.14502 10.9986 4.14502 12.0368C4.14502 13.0752 4.55283 14.0719 5.28061 14.8124C6.0084 15.5529 6.99792 15.9779 8.03604 15.9959C7.00299 16.0212 6.02077 16.4493 5.29908 17.189C4.57739 17.9285 4.17343 18.921 4.17343 19.9543C4.17343 20.9876 4.57739 21.98 5.29908 22.7197C6.02077 23.4593 7.00299 23.8874 8.03604 23.9127C9.0859 23.9121 10.0925 23.4947 10.8348 22.7522C11.577 22.0098 11.9941 21.003 11.9944 19.9532V8.07787H15.9529Z" fill="#4D4D4D"/>
<path id="Vector_2" d="M15.9531 15.9947C18.1392 15.9947 19.9115 14.2225 19.9115 12.0363C19.9115 9.85011 18.1392 8.07788 15.9531 8.07788C13.7669 8.07788 11.9946 9.85011 11.9946 12.0363C11.9946 14.2225 13.7669 15.9947 15.9531 15.9947Z" fill="#4D4D4D"/>
</g>
<defs>
<clipPath id="clip0_1_2235">
<rect width="24" height="24" fill="white" transform="translate(0 0.0366211)"/>
</clipPath>
</defs>
</svg>
