<svg width="195" height="105" viewBox="0 0 195 105" fill="none" xmlns="http://www.w3.org/2000/svg">
<g id="Group 61">
<rect id="Rectangle 58" width="195" height="105" rx="15" fill="#1890FF" fill-opacity="0.08"/>
<rect id="Rectangle 59" x="8" y="42" width="179" height="17" rx="5" fill="#1890FF" fill-opacity="0.16"/>
<rect id="Rectangle 65" x="8" y="8" width="37" height="5" rx="2.5" fill="#1890FF" fill-opacity="0.16"/>
<g id="Group 40">
<line id="Line 4" x1="8" y1="64.5" x2="120" y2="64.5" stroke="#0078D4" stroke-opacity="0.1"/>
<line id="Line 5" x1="8" y1="71.5" x2="120" y2="71.5" stroke="#0078D4" stroke-opacity="0.1"/>
<line id="Line 6" x1="8" y1="78.5" x2="120" y2="78.5" stroke="#0078D4" stroke-opacity="0.1"/>
</g>
<line id="Line 5_2" x1="11" y1="49.5" x2="123" y2="49.5" stroke="white" stroke-opacity="0.7"/>
<g id="Group 41">
<line id="Line 4_2" x1="8" y1="85.5" x2="120" y2="85.5" stroke="#0078D4" stroke-opacity="0.1"/>
<line id="Line 5_3" x1="8" y1="92.5" x2="120" y2="92.5" stroke="#0078D4" stroke-opacity="0.1"/>
</g>
<line id="Line 4_3" x1="155" y1="19.5" x2="187" y2="19.5" stroke="#0078D4" stroke-opacity="0.1"/>
<line id="Line 5_4" x1="155" y1="26.5" x2="187" y2="26.5" stroke="#0078D4" stroke-opacity="0.1"/>
<line id="Line 6_2" x1="155" y1="33.5" x2="187" y2="33.5" stroke="#0078D4" stroke-opacity="0.1"/>
<line id="Line 4_4" x1="155" y1="64.5" x2="187" y2="64.5" stroke="#0078D4" stroke-opacity="0.1"/>
<line id="Line 5_5" x1="155" y1="71.5" x2="187" y2="71.5" stroke="#0078D4" stroke-opacity="0.1"/>
<line id="Line 6_3" x1="155" y1="78.5" x2="187" y2="78.5" stroke="#0078D4" stroke-opacity="0.1"/>
<line id="Line 5_6" x1="155" y1="85.5" x2="187" y2="85.5" stroke="#0078D4" stroke-opacity="0.1"/>
<line id="Line 6_4" x1="155" y1="92.5" x2="187" y2="92.5" stroke="#0078D4" stroke-opacity="0.1"/>
<line id="Line 4_5" x1="8" y1="19.5" x2="120" y2="19.5" stroke="#0078D4" stroke-opacity="0.1"/>
<line id="Line 5_7" x1="8" y1="26.5" x2="120" y2="26.5" stroke="#0078D4" stroke-opacity="0.1"/>
<line id="Line 6_5" x1="8" y1="33.5" x2="120" y2="33.5" stroke="#0078D4" stroke-opacity="0.1"/>
<line id="Line 4_6" x1="8" y1="19.5" x2="120" y2="19.5" stroke="#0078D4" stroke-opacity="0.1"/>
<line id="Line 5_8" x1="8" y1="26.5" x2="120" y2="26.5" stroke="#0078D4" stroke-opacity="0.1"/>
<line id="Line 6_6" x1="8" y1="33.5" x2="120" y2="33.5" stroke="#0078D4" stroke-opacity="0.1"/>
</g>
</svg>
