<svg width="32" height="33" viewBox="0 0 32 33" fill="none" xmlns="http://www.w3.org/2000/svg">
<g id="i_logo">
<path id="Vector" d="M16.0002 0.0366211C19.6821 0.0366211 22.6669 3.02139 22.6669 6.70329H9.3335C9.3335 3.02139 12.3183 0.0366211 16.0002 0.0366211Z" fill="#1A1A1A"/>
<path id="Vector_2" d="M8 16.0366C8 11.6183 11.5817 8.03662 16 8.03662C20.4183 8.03662 24 11.6183 24 16.0366C24 20.4549 20.4183 24.0366 16 24.0366C11.5817 24.0366 8 20.4549 8 16.0366Z" fill="#1A1A1A"/>
<path id="Vector_3" d="M6.66667 9.36993C2.98477 9.36993 0 12.3547 0 16.0366C0 19.7185 2.98477 22.7033 6.66667 22.7033V9.36993Z" fill="#1A1A1A"/>
<path id="Vector_4" d="M32.0002 16.0366C32.0002 19.7185 29.0154 22.7033 25.3335 22.7033V9.36993C29.0154 9.36993 32.0002 12.3547 32.0002 16.0366Z" fill="#1A1A1A"/>
<path id="Vector_5" d="M9.3335 25.3699C9.3335 29.0518 12.3183 32.0366 16.0002 32.0366C19.6821 32.0366 22.6669 29.0518 22.6669 25.3699H9.3335Z" fill="#1A1A1A"/>
<path id="Vector_6" d="M25.3335 2.70331C27.5427 2.70331 29.3335 4.49417 29.3335 6.70331H25.3335V2.70331Z" fill="#1A1A1A"/>
<path id="Vector_7" d="M25.3335 29.3699C27.5427 29.3699 29.3335 27.5791 29.3335 25.3699H25.3335V29.3699Z" fill="#1A1A1A"/>
<path id="Vector_8" d="M2.6665 6.70331C2.6665 4.49417 4.45736 2.70331 6.6665 2.70331V6.70331H2.6665Z" fill="#1A1A1A"/>
<path id="Vector_9" d="M2.6665 25.3699C2.6665 27.5791 4.45736 29.3699 6.6665 29.3699V25.3699H2.6665Z" fill="#1A1A1A"/>
</g>
</svg>
