<svg width="24" height="25" viewBox="0 0 24 25" fill="none" xmlns="http://www.w3.org/2000/svg">
<g id="instagram-alt-logo">
<path id="Vector" d="M22.6288 7.64682C22.6168 6.74705 22.4484 5.85623 22.131 5.0142C21.8558 4.30396 21.4355 3.65893 20.8969 3.12033C20.3583 2.58173 19.7132 2.1614 19.003 1.8862C18.1718 1.57418 17.2937 1.40546 16.406 1.38724C15.2632 1.33615 14.9009 1.3219 11.9997 1.3219C9.09865 1.3219 8.72682 1.3219 7.59229 1.38724C6.70504 1.4056 5.82733 1.57431 4.99651 1.8862C4.28615 2.16121 3.64103 2.58147 3.1024 3.1201C2.56377 3.65872 2.14351 4.30385 1.8685 5.0142C1.55586 5.84478 1.38751 6.72268 1.37073 7.60999C1.31964 8.75401 1.3042 9.11641 1.3042 12.0175C1.3042 14.9186 1.3042 15.2892 1.37073 16.4249C1.38855 17.3136 1.55606 18.1903 1.8685 19.0231C2.14398 19.7332 2.56455 20.3781 3.10335 20.9165C3.64216 21.4549 4.28735 21.875 4.9977 22.1499C5.82625 22.4745 6.7041 22.6552 7.59348 22.6845C8.73753 22.7356 9.09985 22.7511 12.0009 22.7511C14.902 22.7511 15.2739 22.7511 16.4084 22.6845C17.296 22.6671 18.1742 22.4987 19.0054 22.1867C19.7155 21.9112 20.3603 21.4908 20.8988 20.9523C21.4375 20.4136 21.8579 19.7688 22.1334 19.0587C22.4458 18.2271 22.6134 17.3504 22.6312 16.4606C22.6823 15.3177 22.6977 14.9553 22.6977 12.0531C22.6953 9.15198 22.6953 8.78375 22.6288 7.64682ZM11.9926 17.5036C8.9585 17.5036 6.50052 15.0457 6.50052 12.0115C6.50052 8.97738 8.9585 6.5194 11.9926 6.5194C13.4492 6.5194 14.8462 7.09803 15.8762 8.12801C16.9061 9.15798 17.4848 10.5549 17.4848 12.0115C17.4848 13.4681 16.9061 14.8651 15.8762 15.895C14.8462 16.925 13.4492 17.5036 11.9926 17.5036ZM17.7033 7.59691C17.5352 7.59708 17.3685 7.56406 17.213 7.49975C17.0576 7.43545 16.9164 7.34112 16.7974 7.22217C16.6785 7.10322 16.5842 6.96198 16.5199 6.80653C16.4556 6.65108 16.4225 6.48448 16.4227 6.31626C16.4227 6.14815 16.4558 5.9817 16.5201 5.82639C16.5844 5.67108 16.6788 5.52997 16.7976 5.4111C16.9165 5.29224 17.0576 5.19795 17.2129 5.13362C17.3682 5.06929 17.5346 5.03618 17.7027 5.03618C17.8709 5.03618 18.0373 5.06929 18.1926 5.13362C18.3479 5.19795 18.4891 5.29224 18.6079 5.4111C18.7268 5.52997 18.821 5.67108 18.8854 5.82639C18.9497 5.9817 18.9828 6.14815 18.9828 6.31626C18.9828 7.0243 18.4102 7.59691 17.7033 7.59691Z" fill="#4D4D4D"/>
<path id="Vector_2" d="M11.9923 15.5791C13.9627 15.5791 15.5599 13.9818 15.5599 12.0115C15.5599 10.0412 13.9627 8.44397 11.9923 8.44397C10.022 8.44397 8.4248 10.0412 8.4248 12.0115C8.4248 13.9818 10.022 15.5791 11.9923 15.5791Z" fill="#4D4D4D"/>
</g>
</svg>
