<svg width="24" height="25" viewBox="0 0 24 25" fill="none" xmlns="http://www.w3.org/2000/svg">
<g clip-path="url(#clip0_1_1312)">
<path d="M23.5 12.5C23.5 6.14873 18.3513 1 12 1C5.64873 1 0.5 6.14873 0.5 12.5C0.5 18.8513 5.64873 24 12 24C18.3513 24 23.5 18.8513 23.5 12.5Z" stroke="#F2F2F2" stroke-opacity="0.7"/>
<path d="M11.0091 12.6667L14.5044 16.1858C14.7647 16.4483 14.7647 16.874 14.5044 17.1365C14.2441 17.399 13.822 17.399 13.5617 17.1365L9.59516 13.142C9.33481 12.8795 9.33481 12.4538 9.59516 12.1913L13.5617 8.19688C13.822 7.93437 14.2441 7.93437 14.5044 8.19688C14.7647 8.45938 14.7647 8.88499 14.5044 9.14749L11.0091 12.6667Z" fill="#F2F2F2" fill-opacity="0.7"/>
</g>
<rect x="0.5" y="1" width="23" height="23" rx="11.5" stroke="#F2F2F2" stroke-opacity="0.7"/>
<defs>
<clipPath id="clip0_1_1312">
<rect y="0.5" width="24" height="24" rx="12" fill="white"/>
</clipPath>
</defs>
</svg>
