<svg xmlns="http://www.w3.org/2000/svg" xmlns:xlink="http://www.w3.org/1999/xlink" width="500" zoomAndPan="magnify" viewBox="0 0 375 374.999991" height="500" preserveAspectRatio="xMidYMid meet" version="1.0"><defs><g/></defs><rect x="-37.5" width="450" fill="#ffffff" y="-37.499999" height="449.999989" fill-opacity="1"/><rect x="-37.5" width="450" fill="#5b55c9" y="-37.499999" height="449.999989" fill-opacity="1"/><g fill="#ffffff" fill-opacity="1"><g transform="translate(2.220891, 227.261241)"><g><path d="M 35.109375 -45.8125 L 28.703125 -69.609375 L 70.015625 -69.609375 L 51.3125 0 L 47.40625 0 L 37 -38.703125 L 26.609375 0 L 22.703125 0 L 4 -69.609375 L 7.796875 -69.609375 L 24.609375 -6.90625 Z M 65.203125 -65.90625 L 33.5 -65.90625 L 38.90625 -45.8125 L 49.40625 -6.90625 Z M 65.203125 -65.90625 "/></g></g></g><g fill="#ffffff" fill-opacity="1"><g transform="translate(61.526285, 227.261241)"><g><path d="M 14.5 -52.015625 L 14.5 -69.609375 L 59.515625 -69.609375 L 59.515625 -52.015625 L 38.8125 -52.015625 L 38.8125 -17.609375 L 59.515625 -17.609375 L 59.515625 0 L 14.5 0 L 14.5 -17.609375 L 35.203125 -17.609375 L 35.203125 -52.015625 Z M 14.5 -52.015625 "/></g></g></g><g fill="#ffffff" fill-opacity="1"><g transform="translate(120.831678, 227.261241)"><g><path d="M 58.109375 -65.90625 L 12.296875 -65.90625 L 12.296875 -69.609375 L 62.90625 -69.609375 L 62.90625 0 L 11.203125 0 L 11.203125 -3.703125 Z M 59.203125 -3.703125 L 59.203125 -61.203125 L 15.796875 -3.703125 Z M 59.203125 -3.703125 "/></g></g></g><g fill="#ffffff" fill-opacity="1"><g transform="translate(180.137066, 227.261241)"><g><path d="M 37.5 1.796875 C 27.832031 1.796875 20.378906 -0.484375 15.140625 -5.046875 C 9.910156 -9.617188 7.332031 -16.472656 7.40625 -25.609375 L 23.703125 -25.609375 C 23.640625 -21.804688 24.773438 -18.90625 27.109375 -16.90625 C 29.441406 -14.90625 32.707031 -13.90625 36.90625 -13.90625 C 40.375 -13.90625 43.109375 -14.46875 45.109375 -15.59375 C 47.109375 -16.726562 48.109375 -18.460938 48.109375 -20.796875 C 48.109375 -22.734375 47.085938 -24.132812 45.046875 -25 C 43.015625 -25.863281 41 -26.476562 39 -26.84375 C 37 -27.21875 35.769531 -27.4375 35.3125 -27.5 C 30.175781 -28.5 25.738281 -29.71875 22 -31.15625 C 18.269531 -32.59375 15.132812 -34.773438 12.59375 -37.703125 C 10.0625 -40.640625 8.796875 -44.507812 8.796875 -49.3125 C 8.796875 -54.113281 10.0625 -58.195312 12.59375 -61.5625 C 15.132812 -64.925781 18.519531 -67.441406 22.75 -69.109375 C 26.988281 -70.773438 31.609375 -71.609375 36.609375 -71.609375 C 42.671875 -71.609375 47.921875 -70.472656 52.359375 -68.203125 C 56.796875 -65.941406 60.28125 -62.507812 62.8125 -57.90625 C 64.070312 -55.707031 64.835938 -53.585938 65.109375 -51.546875 C 65.378906 -49.515625 65.515625 -47.535156 65.515625 -45.609375 L 49.203125 -45.609375 C 49.203125 -49.210938 48.234375 -51.863281 46.296875 -53.5625 C 44.367188 -55.257812 41.375 -56.109375 37.3125 -56.109375 C 34.039062 -56.109375 31.503906 -55.539062 29.703125 -54.40625 C 27.898438 -53.269531 27 -51.738281 27 -49.8125 C 27 -47.675781 28.195312 -46.109375 30.59375 -45.109375 C 33 -44.109375 36.035156 -43.207031 39.703125 -42.40625 C 45.703125 -41.207031 50.382812 -40.054688 53.75 -38.953125 C 57.125 -37.859375 60.039062 -35.910156 62.5 -33.109375 C 64.96875 -30.304688 66.203125 -26.367188 66.203125 -21.296875 C 66.203125 -16.503906 64.867188 -12.375 62.203125 -8.90625 C 59.535156 -5.4375 56.019531 -2.785156 51.65625 -0.953125 C 47.289062 0.878906 42.570312 1.796875 37.5 1.796875 Z M 37.5 1.796875 "/></g></g></g><g fill="#ffffff" fill-opacity="1"><g transform="translate(239.442466, 227.261241)"><g><path d="M 14.5 -52.015625 L 14.5 -69.609375 L 59.515625 -69.609375 L 59.515625 -52.015625 L 38.8125 -52.015625 L 38.8125 -17.609375 L 59.515625 -17.609375 L 59.515625 0 L 14.5 0 L 14.5 -17.609375 L 35.203125 -17.609375 L 35.203125 -52.015625 Z M 14.5 -52.015625 "/></g></g></g><g fill="#ffffff" fill-opacity="1"><g transform="translate(298.747865, 227.261241)"><g><path d="M 13.90625 0 L 13.90625 -69.609375 L 43 -69.609375 C 47.875 -69.609375 52.078125 -68.707031 55.609375 -66.90625 C 59.671875 -64.84375 62.898438 -61.894531 65.296875 -58.0625 C 67.703125 -54.226562 68.90625 -50.007812 68.90625 -45.40625 C 68.90625 -40.800781 67.722656 -36.566406 65.359375 -32.703125 C 62.992188 -28.835938 59.773438 -25.867188 55.703125 -23.796875 C 52.242188 -22.003906 48.007812 -21.109375 43 -21.109375 L 32.109375 -21.109375 L 32.109375 0 Z M 13.90625 0 "/></g></g></g></svg>