<svg width="24" height="25" viewBox="0 0 24 25" fill="none" xmlns="http://www.w3.org/2000/svg">
<g clip-path="url(#clip0_1_1319)">
<path d="M23.5 12.5C23.5 6.14873 18.3513 1 12 1C5.64873 1 0.5 6.14873 0.5 12.5C0.5 18.8513 5.64873 24 12 24C18.3513 24 23.5 18.8513 23.5 12.5Z" stroke="#F2F2F2" stroke-opacity="0.7"/>
<path d="M13.4406 12.6667L9.94523 9.14749C9.68492 8.88499 9.68492 8.45938 9.94523 8.19688C10.2055 7.93437 10.6276 7.93437 10.8879 8.19688L14.8545 12.1913C15.1148 12.4538 15.1148 12.8795 14.8545 13.142L10.8879 17.1365C10.6276 17.399 10.2055 17.399 9.94523 17.1365C9.68492 16.874 9.68492 16.4483 9.94523 16.1858L13.4406 12.6667Z" fill="#F2F2F2" fill-opacity="0.7"/>
</g>
<rect x="0.5" y="1" width="23" height="23" rx="11.5" stroke="#F2F2F2" stroke-opacity="0.7"/>
<defs>
<clipPath id="clip0_1_1319">
<rect y="0.5" width="24" height="24" rx="12" fill="white"/>
</clipPath>
</defs>
</svg>
