<svg width="16" height="16" viewBox="0 0 16 16" fill="none" xmlns="http://www.w3.org/2000/svg">
<path d="M14.284 15.146L9.05003 9.9118C8.63337 10.2558 8.1542 10.5251 7.61253 10.7195C7.07087 10.914 6.51052 11.0112 5.93149 11.0112C4.50718 11.0112 3.30177 10.5181 2.31524 9.5318C1.32871 8.54555 0.835449 7.34041 0.835449 5.91638C0.835449 4.49249 1.32857 3.28694 2.31482 2.29972C3.30107 1.31263 4.50621 0.819092 5.93024 0.819092C7.35413 0.819092 8.55968 1.31236 9.54691 2.29888C10.534 3.28541 11.0275 4.49083 11.0275 5.91513C11.0275 6.51027 10.9277 7.07868 10.7279 7.62034C10.5281 8.16201 10.2615 8.63312 9.92816 9.03368L15.1621 14.2676L14.284 15.146ZM5.93149 9.76138C7.00524 9.76138 7.91469 9.38874 8.65982 8.64347C9.4051 7.89833 9.77774 6.98888 9.77774 5.91513C9.77774 4.84138 9.4051 3.93194 8.65982 3.1868C7.91469 2.44152 7.00524 2.06888 5.93149 2.06888C4.85774 2.06888 3.9483 2.44152 3.20316 3.1868C2.45788 3.93194 2.08524 4.84138 2.08524 5.91513C2.08524 6.98888 2.45788 7.89833 3.20316 8.64347C3.9483 9.38874 4.85774 9.76138 5.93149 9.76138Z" fill="#F8F8F8"/>
</svg>
