<svg width="20" height="20" viewBox="0 0 20 20" fill="none" xmlns="http://www.w3.org/2000/svg">
<g id="search">
<mask id="mask0_0_2177" style="mask-type:alpha" maskUnits="userSpaceOnUse" x="0" y="0" width="20" height="20">
<rect id="Bounding box" width="20" height="20" fill="#D9D9D9"/>
</mask>
<g mask="url(#mask0_0_2177)">
<path id="search_2" d="M16.2837 17.146L11.0498 11.9118C10.6331 12.2558 10.154 12.5251 9.61229 12.7195C9.07062 12.914 8.51027 13.0112 7.93125 13.0112C6.50694 13.0112 5.30152 12.5181 4.315 11.5318C3.32847 10.5456 2.83521 9.34041 2.83521 7.91638C2.83521 6.49249 3.32833 5.28694 4.31458 4.29972C5.30083 3.31263 6.50597 2.81909 7.93 2.81909C9.35389 2.81909 10.5594 3.31236 11.5467 4.29888C12.5337 5.28541 13.0273 6.49083 13.0273 7.91513C13.0273 8.51027 12.9274 9.07868 12.7277 9.62034C12.5278 10.162 12.2612 10.6331 11.9279 11.0337L17.1619 16.2676L16.2837 17.146ZM7.93125 11.7614C9.005 11.7614 9.91444 11.3887 10.6596 10.6435C11.4049 9.89833 11.7775 8.98888 11.7775 7.91513C11.7775 6.84138 11.4049 5.93194 10.6596 5.1868C9.91444 4.44152 9.005 4.06888 7.93125 4.06888C6.8575 4.06888 5.94805 4.44152 5.20291 5.1868C4.45764 5.93194 4.085 6.84138 4.085 7.91513C4.085 8.98888 4.45764 9.89833 5.20291 10.6435C5.94805 11.3887 6.8575 11.7614 7.93125 11.7614Z" fill="#524CC6"/>
</g>
</g>
</svg>
