<svg width="36" height="36" viewBox="0 0 36 36" fill="none" xmlns="http://www.w3.org/2000/svg">
<g id="icon" clip-path="url(#clip0_0_2237)">
<g id="Clip path group">
<mask id="mask0_0_2237" style="mask-type:luminance" maskUnits="userSpaceOnUse" x="0" y="0" width="36" height="36">
<g id="clip0_1599_4622">
<path id="Vector" d="M36 0H0V36H36V0Z" fill="white"/>
</g>
</mask>
<g mask="url(#mask0_0_2237)">
<g id="Group">
<path id="Vector_2" d="M18.7954 24.7455C18.6063 24.2943 18.4559 23.2394 18.4559 22.3644C18.4559 20.3161 18.3283 20.1292 14.4093 16.4518C11.1966 13.4396 11.1966 13.4396 9.4149 13.4556C7.63313 13.4692 7.63313 13.4692 4.61414 9.64824C1.00731 5.08216 1.05288 5.30545 3.29718 3.06343C5.37971 0.985451 5.61667 0.955831 7.55566 2.54849C8.35085 3.20014 9.51288 4.1571 10.1394 4.67431C10.766 5.19153 11.723 5.90014 12.263 6.24874C13.384 6.96874 14.243 8.7414 14.0037 9.83507C13.8055 10.7396 14.4275 11.913 15.6579 12.9543C16.2571 13.4601 17.3121 14.5515 18.0002 15.3809C19.602 17.3062 20.7776 17.9966 22.4592 17.9966C24.8698 17.9966 25.5214 18.4295 30.4088 23.2781C36.0412 28.8672 36.0207 28.7032 31.564 32.8523C30.3154 34.0143 29.2149 34.8573 28.946 34.8573C28.6794 34.8573 27.6154 34.0553 26.4533 32.9776C23.1792 29.9404 19.1599 25.6227 18.7954 24.7455Z" fill="#605E5C" fill-opacity="0.6"/>
<path id="Vector_3" d="M23.8193 15.8251C20.176 15.2054 16.5647 12.2342 16.2502 9.59804C15.97 7.24664 17.934 4.12057 20.6955 2.53019C22.8214 1.30209 27.1505 1.05145 27.7976 2.11551C28.1325 2.66918 28.0983 2.71702 25.69 5.04791C22.9535 7.69323 22.9102 7.80032 23.5687 10.2634C23.9902 11.8355 24.9722 12.5282 26.7836 12.5282C28.3945 12.5282 28.734 12.3322 31.0034 10.1107C33.7307 7.44032 34.8609 7.54968 34.8609 10.4821C34.8609 13.0021 33.954 15.1279 32.1517 16.8345C31.3041 17.6365 30.3882 18.3793 30.1148 18.4864C29.716 18.6436 29.2786 18.4431 27.8477 17.4428C26.2049 16.2991 25.9087 16.1806 23.8193 15.8251Z" fill="#605E5C" fill-opacity="0.6"/>
<path id="Vector_4" d="M2.10775 32.3124C0.357877 29.8175 0.758889 29.0587 7.2275 22.6425C12.8166 17.099 12.3472 17.3245 14.3272 19.2225C15.9085 20.7377 16.1773 21.3643 16.1773 23.5266C16.1773 25.2901 16.1773 25.2901 12.7254 28.9357C10.8252 30.9407 8.64699 33.0073 7.8837 33.5291C6.91762 34.1853 6.19762 34.4997 5.52547 34.5567C4.73028 34.6228 4.39762 34.5157 3.67534 33.9643C3.19003 33.5929 2.4837 32.8501 2.10775 32.3124ZM7.02243 29.8334C6.81509 28.439 4.94674 28.3524 4.21762 29.7035C3.79155 30.4942 3.79155 30.4942 4.40218 31.1982C4.78496 31.6402 5.22927 31.9023 5.58927 31.9023C6.26598 31.9023 7.14319 30.6331 7.02243 29.8334Z" fill="#605E5C" fill-opacity="0.6"/>
</g>
</g>
</g>
</g>
<defs>
<clipPath id="clip0_0_2237">
<rect width="36" height="36" fill="white"/>
</clipPath>
</defs>
</svg>
