<svg width="36" height="36" viewBox="0 0 36 36" fill="none" xmlns="http://www.w3.org/2000/svg">
<g id="icon" clip-path="url(#clip0_0_2215)">
<g id="Clip path group">
<mask id="mask0_0_2215" style="mask-type:luminance" maskUnits="userSpaceOnUse" x="0" y="0" width="36" height="36">
<g id="clip0_1599_4606">
<path id="Vector" d="M36 0H0V36H36V0Z" fill="white"/>
</g>
</mask>
<g mask="url(#mask0_0_2215)">
<g id="Group">
<path id="Vector_2" d="M2.0622 28.6902C2.64777 26.0813 3.08296 25.4069 6.10878 22.4175C7.44853 21.096 9.27131 19.2299 10.1599 18.2661C14.0083 14.0988 21.3837 7.2679 22.0376 7.26562C22.7485 7.26562 28.9369 13.1304 28.9369 13.8049C28.9369 14.0008 24.8083 18.2889 19.7591 23.338C9.60625 33.4955 10.5017 32.812 6.03815 33.8145C4.53435 34.1517 3.12397 34.4752 2.90524 34.5299C2.65916 34.5937 2.33334 34.4001 2.05081 34.0218C1.44701 33.213 1.45157 31.4289 2.0622 28.6902Z" fill="#605E5C" fill-opacity="0.6"/>
<path id="Vector_3" d="M22.443 30.8312C20.5018 28.8831 18.9114 27.213 18.9114 27.1196C18.9114 27.0262 20.6544 25.29 22.7871 23.2644C27.2324 19.0378 27.5354 18.8783 28.9549 20.0198C30.4473 21.2206 30.4063 21.6695 28.6519 23.253C26.9681 24.7727 26.4714 25.6522 26.8747 26.4041C27.3326 27.2608 28.0002 26.9692 29.7068 25.1692C31.623 23.1459 31.9192 23.0867 33.3866 24.4492C35.6081 26.5135 35.4782 26.771 29.0529 32.9776C27.679 34.3059 26.9407 34.8573 26.5397 34.8573C26.2299 34.8573 25.9747 34.7479 25.9747 34.6135C25.9747 34.4791 24.3866 32.7771 22.443 30.8312Z" fill="#605E5C" fill-opacity="0.6"/>
<path id="Vector_4" d="M1.30552 8.712C1.75666 7.53858 7.98375 1.48465 9.01362 1.22035C9.90223 0.992502 11.9437 2.36643 12.3243 3.44643C12.6045 4.24617 12.6045 4.24617 10.7453 6.06668C8.81311 7.9601 8.49868 8.64136 9.32805 9.1244C10.0481 9.54136 10.7316 9.15858 12.4313 7.37908C14.3612 5.36035 14.4706 5.34668 16.127 6.97124C17.2617 8.08313 17.387 8.2882 17.0886 8.55478C16.9017 8.72339 14.9377 10.61 12.7253 12.7472C10.5129 14.8844 8.58982 16.632 8.45311 16.632C8.31413 16.632 6.75565 15.1715 4.98527 13.3852C1.51286 9.88313 1.07311 9.32263 1.30552 8.712Z" fill="#605E5C" fill-opacity="0.6"/>
<path id="Vector_5" d="M25.4962 2.99978C28.2942 0.591424 29.5177 0.76231 32.6939 3.99548C35.6651 7.0213 35.6878 7.43598 33.0243 10.1838C32.0126 11.2274 31.0397 12.0795 30.8597 12.0795C30.6797 12.0795 29.0461 10.5552 27.2278 8.68915C23.3407 4.7018 23.3772 4.82484 25.4962 2.99978Z" fill="#605E5C" fill-opacity="0.6"/>
</g>
</g>
</g>
</g>
<defs>
<clipPath id="clip0_0_2215">
<rect width="36" height="36" fill="white"/>
</clipPath>
</defs>
</svg>
