<svg width="36" height="36" viewBox="0 0 36 36" fill="none" xmlns="http://www.w3.org/2000/svg">
<g id="icon" clip-path="url(#clip0_0_2227)">
<g id="Clip path group">
<mask id="mask0_0_2227" style="mask-type:luminance" maskUnits="userSpaceOnUse" x="0" y="0" width="36" height="36">
<g id="clip0_1599_4615">
<path id="Vector" d="M36 0H0V36H36V0Z" fill="white"/>
</g>
</mask>
<g mask="url(#mask0_0_2227)">
<g id="Group">
<path id="Vector_2" d="M13.7921 22.0383C13.0277 19.975 10.3207 19.8004 9.43701 21.7562C8.93675 22.8631 8.93676 22.8631 5.0539 22.847L1.1687 22.8282C1.1687 15.5502 1.39546 14.8705 3.48065 12.5198C4.65182 11.2007 4.65182 11.2007 6.6739 11.0153C9.28039 10.7789 9.35052 10.6849 9.35052 7.43412C9.35052 1.59084 9.69416 1.34368 17.8386 1.35174C26.0742 1.35711 26.1794 1.42965 26.1817 7.11711C26.1817 10.6338 26.4505 11.018 28.9027 11.018C30.9833 11.018 31.4835 11.3592 33.2602 13.992C34.6066 15.9882 34.6066 15.9882 34.7563 19.4135L34.9082 22.8389C26.8035 22.8389 26.8035 22.8389 26.2705 21.7589C25.277 19.7493 22.8809 19.9804 22.1492 22.1592C21.9248 22.8282 21.635 23.3762 21.5064 23.3762C21.3778 23.3762 19.669 23.2876 17.7077 23.1801C14.1427 22.984 14.1427 22.984 13.7921 22.0383ZM22.2077 8.18368C22.2077 5.73084 21.6163 5.45681 16.9713 5.74159C13.5887 5.95114 13.5583 5.97532 13.5583 8.44427C13.5583 9.89502 13.6448 10.4189 13.909 10.5613C14.103 10.6634 15.8446 10.7493 17.7825 10.7493C22.2357 10.7493 22.2077 10.7655 22.2077 8.18368Z" fill="#605E5C" fill-opacity="0.6"/>
<path id="Vector_3" d="M1.17572 28.9513L1.1687 25.2572C8.4552 25.2572 8.4552 25.2572 9.16351 26.0981C10.669 27.8847 12.2703 27.9734 13.715 26.3507C15.2111 24.6743 20.4521 24.6608 22.3433 26.3319C23.9983 27.7934 24.8633 27.7934 26.3126 26.3319C27.3786 25.2572 27.3786 25.2572 29.5269 25.2599C34.983 25.2653 34.8311 25.1444 34.8311 29.4241C34.8311 32.8817 34.7843 33.3116 34.3472 33.9537C33.8609 34.6602 33.8609 34.6602 17.7498 34.6602C1.63624 34.6602 1.63624 34.6602 1.40948 33.6528C1.28325 33.0993 1.17805 30.9823 1.17572 28.9513Z" fill="#605E5C" fill-opacity="0.6"/>
</g>
</g>
</g>
</g>
<defs>
<clipPath id="clip0_0_2227">
<rect width="36" height="36" fill="white"/>
</clipPath>
</defs>
</svg>
