<svg width="37" height="36" viewBox="0 0 37 36" fill="none" xmlns="http://www.w3.org/2000/svg">
<g clip-path="url(#clip0_0_2145)">
<mask id="mask0_0_2145" style="mask-type:luminance" maskUnits="userSpaceOnUse" x="0" y="0" width="37" height="36">
<path d="M36.667 0H0.666992V36H36.667V0Z" fill="white"/>
</mask>
<g mask="url(#mask0_0_2145)">
<path d="M19.4624 24.7455C19.2733 24.2943 19.1229 23.2394 19.1229 22.3644C19.1229 20.3161 18.9953 20.1292 15.0763 16.4518C11.8636 13.4396 11.8636 13.4396 10.0819 13.4556C8.30013 13.4692 8.30012 13.4692 5.28113 9.64824C1.6743 5.08216 1.71987 5.30545 3.96417 3.06343C6.0467 0.985451 6.28366 0.955831 8.22265 2.54849C9.01784 3.20014 10.1799 4.1571 10.8064 4.67431C11.433 5.19153 12.39 5.90014 12.93 6.24874C14.051 6.96874 14.91 8.7414 14.6707 9.83507C14.4725 10.7396 15.0945 11.913 16.3249 12.9543C16.9241 13.4601 17.9791 14.5515 18.6672 15.3809C20.269 17.3062 21.4446 17.9966 23.1262 17.9966C25.5368 17.9966 26.1884 18.4295 31.0758 23.2781C36.7082 28.8672 36.6877 28.7032 32.231 32.8523C30.9824 34.0143 29.8819 34.8573 29.613 34.8573C29.3464 34.8573 28.2824 34.0553 27.1203 32.9776C23.8462 29.9404 19.8269 25.6227 19.4624 24.7455Z" fill="#F0F0F0"/>
<path d="M24.4863 15.8251C20.843 15.2054 17.2317 12.2342 16.9172 9.59804C16.637 7.24664 18.601 4.12057 21.3625 2.53019C23.4884 1.30209 27.8175 1.05145 28.4646 2.11551C28.7995 2.66918 28.7653 2.71702 26.357 5.04791C23.6205 7.69323 23.5772 7.80032 24.2357 10.2634C24.6572 11.8355 25.6392 12.5282 27.4506 12.5282C29.0615 12.5282 29.401 12.3322 31.6704 10.1107C34.3977 7.44032 35.5279 7.54968 35.5279 10.4821C35.5279 13.0021 34.621 15.1279 32.8187 16.8345C31.9711 17.6365 31.0552 18.3793 30.7818 18.4864C30.383 18.6436 29.9456 18.4431 28.5147 17.4428C26.8719 16.2991 26.5757 16.1806 24.4863 15.8251Z" fill="#F0F0F0"/>
<path d="M2.77474 32.3124C1.02487 29.8175 1.42588 29.0587 7.89449 22.6425C13.4836 17.099 13.0142 17.3245 14.9942 19.2225C16.5755 20.7377 16.8443 21.3643 16.8443 23.5266C16.8443 25.2901 16.8443 25.2901 13.3924 28.9357C11.4922 30.9407 9.31398 33.0073 8.55069 33.5291C7.58461 34.1853 6.86461 34.4997 6.19246 34.5567C5.39727 34.6228 5.06461 34.5157 4.34233 33.9643C3.85702 33.5929 3.15069 32.8501 2.77474 32.3124ZM7.68942 29.8334C7.48208 28.439 5.61373 28.3524 4.88461 29.7035C4.45854 30.4942 4.45854 30.4942 5.06917 31.1982C5.45195 31.6402 5.89626 31.9023 6.25626 31.9023C6.93297 31.9023 7.81018 30.6331 7.68942 29.8334Z" fill="#F0F0F0"/>
</g>
</g>
<defs>
<clipPath id="clip0_0_2145">
<rect width="36" height="36" fill="white" transform="translate(0.666992)"/>
</clipPath>
</defs>
</svg>
