<svg width="37" height="36" viewBox="0 0 37 36" fill="none" xmlns="http://www.w3.org/2000/svg">
<g clip-path="url(#clip0_0_2135)">
<mask id="mask0_0_2135" style="mask-type:luminance" maskUnits="userSpaceOnUse" x="0" y="0" width="37" height="36">
<path d="M36.3335 0H0.333496V36H36.3335V0Z" fill="white"/>
</mask>
<g mask="url(#mask0_0_2135)">
<path d="M14.1258 22.0383C13.3614 19.975 10.6544 19.8004 9.77075 21.7562C9.27049 22.8631 9.2705 22.8631 5.38764 22.847L1.50244 22.8282C1.50244 15.5502 1.7292 14.8705 3.81439 12.5198C4.98556 11.2007 4.98556 11.2007 7.00764 11.0153C9.61413 10.7789 9.68426 10.6849 9.68426 7.43412C9.68426 1.59084 10.0279 1.34368 18.1723 1.35174C26.4079 1.35711 26.5131 1.42965 26.5154 7.11711C26.5154 10.6338 26.7842 11.018 29.2364 11.018C31.317 11.018 31.8172 11.3592 33.5939 13.992C34.9403 15.9882 34.9403 15.9882 35.09 19.4135L35.2419 22.8389C27.1372 22.8389 27.1372 22.8389 26.6042 21.7589C25.6107 19.7493 23.2146 19.9804 22.4829 22.1592C22.2585 22.8282 21.9687 23.3762 21.8401 23.3762C21.7115 23.3762 20.0027 23.2876 18.0414 23.1801C14.4764 22.984 14.4764 22.984 14.1258 22.0383ZM22.5414 8.18368C22.5414 5.73084 21.95 5.45681 17.305 5.74159C13.9224 5.95114 13.892 5.97532 13.892 8.44427C13.892 9.89502 13.9785 10.4189 14.2427 10.5613C14.4367 10.6634 16.1783 10.7493 18.1162 10.7493C22.5694 10.7493 22.5414 10.7655 22.5414 8.18368Z" fill="#F0F0F0"/>
<path d="M1.50946 28.9513L1.50244 25.2572C8.78894 25.2572 8.78894 25.2572 9.49725 26.0981C11.0027 27.8847 12.604 27.9734 14.0487 26.3507C15.5448 24.6743 20.7858 24.6608 22.677 26.3319C24.332 27.7934 25.197 27.7934 26.6463 26.3319C27.7123 25.2572 27.7123 25.2572 29.8606 25.2599C35.3167 25.2653 35.1648 25.1444 35.1648 29.4241C35.1648 32.8817 35.118 33.3116 34.6809 33.9537C34.1946 34.6602 34.1946 34.6602 18.0835 34.6602C1.96998 34.6602 1.96998 34.6602 1.74322 33.6528C1.61699 33.0993 1.51179 30.9823 1.50946 28.9513Z" fill="#F0F0F0"/>
</g>
</g>
<defs>
<clipPath id="clip0_0_2135">
<rect width="36" height="36" fill="white" transform="translate(0.333496)"/>
</clipPath>
</defs>
</svg>
